<?xml version="1.0" encoding="utf-8"?>
<svg xmlns="http://www.w3.org/2000/svg" xmlns:xlink="http://www.w3.org/1999/xlink" style="margin: auto; background: rgb(25, 29, 58); display: block; z-index: 1; position: relative; shape-rendering: auto;" preserveAspectRatio="xMidYMid" viewBox="0 0 3000 2000">
<g transform="translate(1500,1000) scale(1,1) translate(-1500,-1000)"><defs>
  <linearGradient id="ldbk-photon-vsww1qftsbf-lg" x1="1200" x2="3000" y1="0" y2="0" gradientUnits="userSpaceOnUse">
    <stop stop-color="#235c89" offset="0"></stop>
    <stop stop-color="#131d4d" offset="1"></stop>
  </linearGradient>
  <mask id="ldbk-photon-vsww1qftsbf-mask">
  <g><path d="M3300 -0.5 L1182.245222847306 -0.5 A26 26 0 0 1 1182.245222847306 52.5 L3300 52.5" fill="#fff">
  <animateTransform attributeName="transform" type="translate" dur="50s" repeatCount="indefinite" keyTimes="0;0.5;1" calcMode="spline" keySplines="0.5 0 0.5 1;0.5 0 0.5 1" values="0;0;0" begin="0s"></animateTransform>
</path><path d="M3083.1110085052323 -0.5 L3114.2220170104647 -0.5 A26 26 0 0 1 3114.2220170104647 52.5 L3083.1110085052323 52.5 A26 26 0 0 1 3083.1110085052323 -0.5" fill="#000">
  <animateTransform attributeName="transform" type="translate" dur="50s" repeatCount="indefinite" keyTimes="0;1" values="0;-2518.448100537452" begin="0s"></animateTransform>
  <animate attributeName="opacity" dur="50s" repeatCount="indefinite" keyTimes="0;0.3;1" values="1;1;0" begin="0s"></animate>
</path><path d="M3300 51.5 L1177.3670223962952 51.5 A26 26 0 0 0 1177.3670223962952 104.5 L3300 104.5" fill="#fff">
  <animateTransform attributeName="transform" type="translate" dur="100s" repeatCount="indefinite" keyTimes="0;0.5;1" calcMode="spline" keySplines="0.5 0 0.5 1;0.5 0 0.5 1" values="0;0;0" begin="-7.6923076923076925s"></animateTransform>
</path><path d="M1265.0083007522392 51.5 L1293.3297045586294 51.5 A26 26 0 0 1 1293.3297045586294 104.5 L1265.0083007522392 104.5 A26 26 0 0 1 1265.0083007522392 51.5" fill="#fff">
  <animateTransform attributeName="transform" type="translate" dur="50s" repeatCount="indefinite" keyTimes="0;1" values="0;0" begin="-7.6923076923076925s"></animateTransform>
  <animate attributeName="opacity" dur="50s" repeatCount="indefinite" keyTimes="0;0.3;1" values="1;1;0" begin="-7.6923076923076925s"></animate>
</path><path d="M3300 103.5 L1172.6793210079838 103.5 A26 26 0 0 1 1172.6793210079838 156.5 L3300 156.5" fill="#fff">
  <animateTransform attributeName="transform" type="translate" dur="100s" repeatCount="indefinite" keyTimes="0;0.5;1" calcMode="spline" keySplines="0.5 0 0.5 1;0.5 0 0.5 1" values="0;0;0" begin="-15.384615384615385s"></animateTransform>
</path><path d="M3063.1350479897533 103.5 L3074.2700959795066 103.5 A26 26 0 0 1 3074.2700959795066 156.5 L3063.1350479897533 156.5 A26 26 0 0 1 3063.1350479897533 103.5" fill="#000">
  <animateTransform attributeName="transform" type="translate" dur="33.333333333333336s" repeatCount="indefinite" keyTimes="0;1" values="0;-3262.6400177848354" begin="-15.384615384615385s"></animateTransform>
  <animate attributeName="opacity" dur="33.333333333333336s" repeatCount="indefinite" keyTimes="0;0.3;1" values="1;1;0" begin="-15.384615384615385s"></animate>
</path><path d="M3300 155.5 L1162.8573079385199 155.5 A26 26 0 0 0 1162.8573079385199 208.5 L3300 208.5" fill="#fff">
  <animateTransform attributeName="transform" type="translate" dur="33.333333333333336s" repeatCount="indefinite" keyTimes="0;0.5;1" calcMode="spline" keySplines="0.5 0 0.5 1;0.5 0 0.5 1" values="0;0;0" begin="-23.076923076923077s"></animateTransform>
</path><path d="M1261.2593017388542 155.5 L1278.968476686039 155.5 A26 26 0 0 1 1278.968476686039 208.5 L1261.2593017388542 208.5 A26 26 0 0 1 1261.2593017388542 155.5" fill="#fff">
  <animateTransform attributeName="transform" type="translate" dur="50s" repeatCount="indefinite" keyTimes="0;1" values="0;0" begin="-23.076923076923077s"></animateTransform>
  <animate attributeName="opacity" dur="50s" repeatCount="indefinite" keyTimes="0;0.3;1" values="1;1;0" begin="-23.076923076923077s"></animate>
</path><path d="M3300 207.5 L1167.8702925877628 207.5 A26 26 0 0 1 1167.8702925877628 260.5 L3300 260.5" fill="#fff">
  <animateTransform attributeName="transform" type="translate" dur="100s" repeatCount="indefinite" keyTimes="0;0.5;1" calcMode="spline" keySplines="0.5 0 0.5 1;0.5 0 0.5 1" values="0;0;0" begin="-30.76923076923077s"></animateTransform>
</path><path d="M3078.3287994888246 207.5 L3104.6575989776493 207.5 A26 26 0 0 1 3104.6575989776493 260.5 L3078.3287994888246 260.5 A26 26 0 0 1 3078.3287994888246 207.5" fill="#000">
  <animateTransform attributeName="transform" type="translate" dur="100s" repeatCount="indefinite" keyTimes="0;1" values="0;-3785.7066808641766" begin="-30.76923076923077s"></animateTransform>
  <animate attributeName="opacity" dur="100s" repeatCount="indefinite" keyTimes="0;0.3;1" values="1;1;0" begin="-30.76923076923077s"></animate>
</path><path d="M3300 259.5 L1140.3802560413444 259.5 A26 26 0 0 0 1140.3802560413444 312.5 L3300 312.5" fill="#fff">
  <animateTransform attributeName="transform" type="translate" dur="100s" repeatCount="indefinite" keyTimes="0;0.5;1" calcMode="spline" keySplines="0.5 0 0.5 1;0.5 0 0.5 1" values="0;0;0" begin="-38.46153846153846s"></animateTransform>
</path><path d="M1268.3475971180267 259.5 L1298.1003947670645 259.5 A26 26 0 0 1 1298.1003947670645 312.5 L1268.3475971180267 312.5 A26 26 0 0 1 1268.3475971180267 259.5" fill="#fff">
  <animateTransform attributeName="transform" type="translate" dur="33.333333333333336s" repeatCount="indefinite" keyTimes="0;1" values="0;0" begin="-38.46153846153846s"></animateTransform>
  <animate attributeName="opacity" dur="33.333333333333336s" repeatCount="indefinite" keyTimes="0;0.3;1" values="1;1;0" begin="-38.46153846153846s"></animate>
</path><path d="M3300 311.5 L1137.3268134848493 311.5 A26 26 0 0 1 1137.3268134848493 364.5 L3300 364.5" fill="#fff">
  <animateTransform attributeName="transform" type="translate" dur="33.333333333333336s" repeatCount="indefinite" keyTimes="0;0.5;1" calcMode="spline" keySplines="0.5 0 0.5 1;0.5 0 0.5 1" values="0;0;0" begin="-46.15384615384615s"></animateTransform>
</path><path d="M3086.024480154872 311.5 L3120.048960309744 311.5 A26 26 0 0 1 3120.048960309744 364.5 L3086.024480154872 364.5 A26 26 0 0 1 3086.024480154872 311.5" fill="#000">
  <animateTransform attributeName="transform" type="translate" dur="33.333333333333336s" repeatCount="indefinite" keyTimes="0;1" values="0;-3803.37650802382" begin="-46.15384615384615s"></animateTransform>
  <animate attributeName="opacity" dur="33.333333333333336s" repeatCount="indefinite" keyTimes="0;0.3;1" values="1;1;0" begin="-46.15384615384615s"></animate>
</path><path d="M3300 363.5 L1115.7328346004294 363.5 A26 26 0 0 0 1115.7328346004294 416.5 L3300 416.5" fill="#fff">
  <animateTransform attributeName="transform" type="translate" dur="100s" repeatCount="indefinite" keyTimes="0;0.5;1" calcMode="spline" keySplines="0.5 0 0.5 1;0.5 0 0.5 1" values="0;0;0" begin="-53.84615384615385s"></animateTransform>
</path><path d="M1282.0601393229472 363.5 L1321.2789726334731 363.5 A26 26 0 0 1 1321.2789726334731 416.5 L1282.0601393229472 416.5 A26 26 0 0 1 1282.0601393229472 363.5" fill="#fff">
  <animateTransform attributeName="transform" type="translate" dur="50s" repeatCount="indefinite" keyTimes="0;1" values="0;0" begin="-53.84615384615385s"></animateTransform>
  <animate attributeName="opacity" dur="50s" repeatCount="indefinite" keyTimes="0;0.3;1" values="1;1;0" begin="-53.84615384615385s"></animate>
</path><path d="M3300 415.5 L1151.8419325196646 415.5 A26 26 0 0 1 1151.8419325196646 468.5 L3300 468.5" fill="#fff">
  <animateTransform attributeName="transform" type="translate" dur="50s" repeatCount="indefinite" keyTimes="0;0.5;1" calcMode="spline" keySplines="0.5 0 0.5 1;0.5 0 0.5 1" values="0;0;0" begin="-61.53846153846154s"></animateTransform>
</path><path d="M3089.741826233871 415.5 L3127.483652467742 415.5 A26 26 0 0 1 3127.483652467742 468.5 L3089.741826233871 468.5 A26 26 0 0 1 3089.741826233871 415.5" fill="#000">
  <animateTransform attributeName="transform" type="translate" dur="33.333333333333336s" repeatCount="indefinite" keyTimes="0;1" values="0;-3699.424763178113" begin="-61.53846153846154s"></animateTransform>
  <animate attributeName="opacity" dur="33.333333333333336s" repeatCount="indefinite" keyTimes="0;0.3;1" values="1;1;0" begin="-61.53846153846154s"></animate>
</path><path d="M3300 467.5 L1124.2488660679555 467.5 A26 26 0 0 0 1124.2488660679555 520.5 L3300 520.5" fill="#fff">
  <animateTransform attributeName="transform" type="translate" dur="33.333333333333336s" repeatCount="indefinite" keyTimes="0;0.5;1" calcMode="spline" keySplines="0.5 0 0.5 1;0.5 0 0.5 1" values="0;0;0" begin="-69.23076923076923s"></animateTransform>
</path><path d="M1268.1886014861611 467.5 L1295.7200166512548 467.5 A26 26 0 0 1 1295.7200166512548 520.5 L1268.1886014861611 520.5 A26 26 0 0 1 1268.1886014861611 467.5" fill="#fff">
  <animateTransform attributeName="transform" type="translate" dur="50s" repeatCount="indefinite" keyTimes="0;1" values="0;0" begin="-69.23076923076923s"></animateTransform>
  <animate attributeName="opacity" dur="50s" repeatCount="indefinite" keyTimes="0;0.3;1" values="1;1;0" begin="-69.23076923076923s"></animate>
</path><path d="M3300 519.5 L1153.0416593968741 519.5 A26 26 0 0 1 1153.0416593968741 572.5 L3300 572.5" fill="#fff">
  <animateTransform attributeName="transform" type="translate" dur="33.333333333333336s" repeatCount="indefinite" keyTimes="0;0.5;1" calcMode="spline" keySplines="0.5 0 0.5 1;0.5 0 0.5 1" values="0;0;0" begin="-76.92307692307692s"></animateTransform>
</path><path d="M3068.0971356715777 519.5 L3084.1942713431554 519.5 A26 26 0 0 1 3084.1942713431554 572.5 L3068.0971356715777 572.5 A26 26 0 0 1 3068.0971356715777 519.5" fill="#000">
  <animateTransform attributeName="transform" type="translate" dur="100s" repeatCount="indefinite" keyTimes="0;1" values="0;-3425.9079295670263" begin="-76.92307692307692s"></animateTransform>
  <animate attributeName="opacity" dur="100s" repeatCount="indefinite" keyTimes="0;0.3;1" values="1;1;0" begin="-76.92307692307692s"></animate>
</path><path d="M3300 571.5 L1153.6236097807532 571.5 A26 26 0 0 0 1153.6236097807532 624.5 L3300 624.5" fill="#fff">
  <animateTransform attributeName="transform" type="translate" dur="33.333333333333336s" repeatCount="indefinite" keyTimes="0;0.5;1" calcMode="spline" keySplines="0.5 0 0.5 1;0.5 0 0.5 1" values="0;0;0" begin="-84.61538461538461s"></animateTransform>
</path><path d="M1239.5889510967108 571.5 L1261.4407526981158 571.5 A26 26 0 0 1 1261.4407526981158 624.5 L1239.5889510967108 624.5 A26 26 0 0 1 1239.5889510967108 571.5" fill="#fff">
  <animateTransform attributeName="transform" type="translate" dur="50s" repeatCount="indefinite" keyTimes="0;1" values="0;0" begin="-84.61538461538461s"></animateTransform>
  <animate attributeName="opacity" dur="50s" repeatCount="indefinite" keyTimes="0;0.3;1" values="1;1;0" begin="-84.61538461538461s"></animate>
</path><path d="M3300 623.5 L1161.8974896621648 623.5 A26 26 0 0 1 1161.8974896621648 676.5 L3300 676.5" fill="#fff">
  <animateTransform attributeName="transform" type="translate" dur="33.333333333333336s" repeatCount="indefinite" keyTimes="0;0.5;1" calcMode="spline" keySplines="0.5 0 0.5 1;0.5 0 0.5 1" values="0;0;0" begin="-92.3076923076923s"></animateTransform>
</path><path d="M3070.701228749907 623.5 L3089.402457499814 623.5 A26 26 0 0 1 3089.402457499814 676.5 L3070.701228749907 676.5 A26 26 0 0 1 3070.701228749907 623.5" fill="#000">
  <animateTransform attributeName="transform" type="translate" dur="100s" repeatCount="indefinite" keyTimes="0;1" values="0;-3790.9477112811073" begin="-92.3076923076923s"></animateTransform>
  <animate attributeName="opacity" dur="100s" repeatCount="indefinite" keyTimes="0;0.3;1" values="1;1;0" begin="-92.3076923076923s"></animate>
</path><path d="M3300 675.5 L1127.072913658144 675.5 A26 26 0 0 0 1127.072913658144 728.5 L3300 728.5" fill="#fff">
  <animateTransform attributeName="transform" type="translate" dur="50s" repeatCount="indefinite" keyTimes="0;0.5;1" calcMode="spline" keySplines="0.5 0 0.5 1;0.5 0 0.5 1" values="0;0;0" begin="-100s"></animateTransform>
</path><path d="M1272.96556211479 675.5 L1308.5803163342807 675.5 A26 26 0 0 1 1308.5803163342807 728.5 L1272.96556211479 728.5 A26 26 0 0 1 1272.96556211479 675.5" fill="#fff">
  <animateTransform attributeName="transform" type="translate" dur="33.333333333333336s" repeatCount="indefinite" keyTimes="0;1" values="0;0" begin="-100s"></animateTransform>
  <animate attributeName="opacity" dur="33.333333333333336s" repeatCount="indefinite" keyTimes="0;0.3;1" values="1;1;0" begin="-100s"></animate>
</path><path d="M3300 727.5 L1158.363318362909 727.5 A26 26 0 0 1 1158.363318362909 780.5 L3300 780.5" fill="#fff">
  <animateTransform attributeName="transform" type="translate" dur="100s" repeatCount="indefinite" keyTimes="0;0.5;1" calcMode="spline" keySplines="0.5 0 0.5 1;0.5 0 0.5 1" values="0;0;0" begin="-107.6923076923077s"></animateTransform>
</path><path d="M3088.49836642151 727.5 L3124.9967328430203 727.5 A26 26 0 0 1 3124.9967328430203 780.5 L3088.49836642151 780.5 A26 26 0 0 1 3088.49836642151 727.5" fill="#000">
  <animateTransform attributeName="transform" type="translate" dur="50s" repeatCount="indefinite" keyTimes="0;1" values="0;-2637.0466090815653" begin="-107.6923076923077s"></animateTransform>
  <animate attributeName="opacity" dur="50s" repeatCount="indefinite" keyTimes="0;0.3;1" values="1;1;0" begin="-107.6923076923077s"></animate>
</path><path d="M3300 779.5 L1161.7077874705149 779.5 A26 26 0 0 0 1161.7077874705149 832.5 L3300 832.5" fill="#fff">
  <animateTransform attributeName="transform" type="translate" dur="50s" repeatCount="indefinite" keyTimes="0;0.5;1" calcMode="spline" keySplines="0.5 0 0.5 1;0.5 0 0.5 1" values="0;0;0" begin="-115.3846153846154s"></animateTransform>
</path><path d="M1250.5048530350375 779.5 L1263.3921978930434 779.5 A26 26 0 0 1 1263.3921978930434 832.5 L1250.5048530350375 832.5 A26 26 0 0 1 1250.5048530350375 779.5" fill="#fff">
  <animateTransform attributeName="transform" type="translate" dur="33.333333333333336s" repeatCount="indefinite" keyTimes="0;1" values="0;0" begin="-115.3846153846154s"></animateTransform>
  <animate attributeName="opacity" dur="33.333333333333336s" repeatCount="indefinite" keyTimes="0;0.3;1" values="1;1;0" begin="-115.3846153846154s"></animate>
</path><path d="M3300 831.5 L1173.2074343988274 831.5 A26 26 0 0 1 1173.2074343988274 884.5 L3300 884.5" fill="#fff">
  <animateTransform attributeName="transform" type="translate" dur="100s" repeatCount="indefinite" keyTimes="0;0.5;1" calcMode="spline" keySplines="0.5 0 0.5 1;0.5 0 0.5 1" values="0;0;0" begin="-123.07692307692308s"></animateTransform>
</path><path d="M3065.160039423974 831.5 L3078.320078847948 831.5 A26 26 0 0 1 3078.320078847948 884.5 L3065.160039423974 884.5 A26 26 0 0 1 3065.160039423974 831.5" fill="#000">
  <animateTransform attributeName="transform" type="translate" dur="100s" repeatCount="indefinite" keyTimes="0;1" values="0;-2748.0202746356235" begin="-123.07692307692308s"></animateTransform>
  <animate attributeName="opacity" dur="100s" repeatCount="indefinite" keyTimes="0;0.3;1" values="1;1;0" begin="-123.07692307692308s"></animate>
</path><path d="M3300 883.5 L1170.1515963702482 883.5 A26 26 0 0 0 1170.1515963702482 936.5 L3300 936.5" fill="#fff">
  <animateTransform attributeName="transform" type="translate" dur="33.333333333333336s" repeatCount="indefinite" keyTimes="0;0.5;1" calcMode="spline" keySplines="0.5 0 0.5 1;0.5 0 0.5 1" values="0;0;0" begin="-130.76923076923077s"></animateTransform>
</path><path d="M1258.3304070381473 883.5 L1277.4440633353918 883.5 A26 26 0 0 1 1277.4440633353918 936.5 L1258.3304070381473 936.5 A26 26 0 0 1 1258.3304070381473 883.5" fill="#fff">
  <animateTransform attributeName="transform" type="translate" dur="33.333333333333336s" repeatCount="indefinite" keyTimes="0;1" values="0;0" begin="-130.76923076923077s"></animateTransform>
  <animate attributeName="opacity" dur="33.333333333333336s" repeatCount="indefinite" keyTimes="0;0.3;1" values="1;1;0" begin="-130.76923076923077s"></animate>
</path><path d="M3300 935.5 L1177.0547867260154 935.5 A26 26 0 0 1 1177.0547867260154 988.5 L3300 988.5" fill="#fff">
  <animateTransform attributeName="transform" type="translate" dur="50s" repeatCount="indefinite" keyTimes="0;0.5;1" calcMode="spline" keySplines="0.5 0 0.5 1;0.5 0 0.5 1" values="0;0;0" begin="-138.46153846153845s"></animateTransform>
</path><path d="M3072.7114437926175 935.5 L3093.422887585235 935.5 A26 26 0 0 1 3093.422887585235 988.5 L3072.7114437926175 988.5 A26 26 0 0 1 3072.7114437926175 935.5" fill="#000">
  <animateTransform attributeName="transform" type="translate" dur="100s" repeatCount="indefinite" keyTimes="0;1" values="0;-3609.279535612188" begin="-138.46153846153845s"></animateTransform>
  <animate attributeName="opacity" dur="100s" repeatCount="indefinite" keyTimes="0;0.3;1" values="1;1;0" begin="-138.46153846153845s"></animate>
</path><path d="M3300 987.5 L1150.0876447886687 987.5 A26 26 0 0 0 1150.0876447886687 1040.5 L3300 1040.5" fill="#fff">
  <animateTransform attributeName="transform" type="translate" dur="100s" repeatCount="indefinite" keyTimes="0;0.5;1" calcMode="spline" keySplines="0.5 0 0.5 1;0.5 0 0.5 1" values="0;0;0" begin="-146.15384615384613s"></animateTransform>
</path><path d="M1297.0843610883278 987.5 L1334.1158911504253 987.5 A26 26 0 0 1 1334.1158911504253 1040.5 L1297.0843610883278 1040.5 A26 26 0 0 1 1297.0843610883278 987.5" fill="#fff">
  <animateTransform attributeName="transform" type="translate" dur="33.333333333333336s" repeatCount="indefinite" keyTimes="0;1" values="0;0" begin="-146.15384615384613s"></animateTransform>
  <animate attributeName="opacity" dur="33.333333333333336s" repeatCount="indefinite" keyTimes="0;0.3;1" values="1;1;0" begin="-146.15384615384613s"></animate>
</path><path d="M3300 1039.5 L1189.6956754649684 1039.5 A26 26 0 0 1 1189.6956754649684 1092.5 L3300 1092.5" fill="#fff">
  <animateTransform attributeName="transform" type="translate" dur="33.333333333333336s" repeatCount="indefinite" keyTimes="0;0.5;1" calcMode="spline" keySplines="0.5 0 0.5 1;0.5 0 0.5 1" values="0;0;0" begin="-153.84615384615384s"></animateTransform>
</path><path d="M3064.7369193636805 1039.5 L3077.473838727361 1039.5 A26 26 0 0 1 3077.473838727361 1092.5 L3064.7369193636805 1092.5 A26 26 0 0 1 3064.7369193636805 1039.5" fill="#000">
  <animateTransform attributeName="transform" type="translate" dur="100s" repeatCount="indefinite" keyTimes="0;1" values="0;-3268.4341954582737" begin="-153.84615384615384s"></animateTransform>
  <animate attributeName="opacity" dur="100s" repeatCount="indefinite" keyTimes="0;0.3;1" values="1;1;0" begin="-153.84615384615384s"></animate>
</path><path d="M3300 1091.5 L1178.3131465618972 1091.5 A26 26 0 0 0 1178.3131465618972 1144.5 L3300 1144.5" fill="#fff">
  <animateTransform attributeName="transform" type="translate" dur="50s" repeatCount="indefinite" keyTimes="0;0.5;1" calcMode="spline" keySplines="0.5 0 0.5 1;0.5 0 0.5 1" values="0;0;0" begin="-161.53846153846155s"></animateTransform>
</path><path d="M1288.0457932953564 1091.5 L1300.904432006699 1091.5 A26 26 0 0 1 1300.904432006699 1144.5 L1288.0457932953564 1144.5 A26 26 0 0 1 1288.0457932953564 1091.5" fill="#fff">
  <animateTransform attributeName="transform" type="translate" dur="50s" repeatCount="indefinite" keyTimes="0;1" values="0;0" begin="-161.53846153846155s"></animateTransform>
  <animate attributeName="opacity" dur="50s" repeatCount="indefinite" keyTimes="0;0.3;1" values="1;1;0" begin="-161.53846153846155s"></animate>
</path><path d="M3300 1143.5 L1182.8926749290727 1143.5 A26 26 0 0 1 1182.8926749290727 1196.5 L3300 1196.5" fill="#fff">
  <animateTransform attributeName="transform" type="translate" dur="33.333333333333336s" repeatCount="indefinite" keyTimes="0;0.5;1" calcMode="spline" keySplines="0.5 0 0.5 1;0.5 0 0.5 1" values="0;0;0" begin="-169.23076923076923s"></animateTransform>
</path><path d="M3083.1299707856333 1143.5 L3114.2599415712666 1143.5 A26 26 0 0 1 3114.2599415712666 1196.5 L3083.1299707856333 1196.5 A26 26 0 0 1 3083.1299707856333 1143.5" fill="#000">
  <animateTransform attributeName="transform" type="translate" dur="100s" repeatCount="indefinite" keyTimes="0;1" values="0;-3228.4500522199164" begin="-169.23076923076923s"></animateTransform>
  <animate attributeName="opacity" dur="100s" repeatCount="indefinite" keyTimes="0;0.3;1" values="1;1;0" begin="-169.23076923076923s"></animate>
</path><path d="M3300 1195.5 L1156.6718866430294 1195.5 A26 26 0 0 0 1156.6718866430294 1248.5 L3300 1248.5" fill="#fff">
  <animateTransform attributeName="transform" type="translate" dur="50s" repeatCount="indefinite" keyTimes="0;0.5;1" calcMode="spline" keySplines="0.5 0 0.5 1;0.5 0 0.5 1" values="0;0;0" begin="-176.9230769230769s"></animateTransform>
</path><path d="M1327.3960629246387 1195.5 L1353.882274186182 1195.5 A26 26 0 0 1 1353.882274186182 1248.5 L1327.3960629246387 1248.5 A26 26 0 0 1 1327.3960629246387 1195.5" fill="#fff">
  <animateTransform attributeName="transform" type="translate" dur="33.333333333333336s" repeatCount="indefinite" keyTimes="0;1" values="0;0" begin="-176.9230769230769s"></animateTransform>
  <animate attributeName="opacity" dur="33.333333333333336s" repeatCount="indefinite" keyTimes="0;0.3;1" values="1;1;0" begin="-176.9230769230769s"></animate>
</path><path d="M3300 1247.5 L1207.7639086471233 1247.5 A26 26 0 0 1 1207.7639086471233 1300.5 L3300 1300.5" fill="#fff">
  <animateTransform attributeName="transform" type="translate" dur="50s" repeatCount="indefinite" keyTimes="0;0.5;1" calcMode="spline" keySplines="0.5 0 0.5 1;0.5 0 0.5 1" values="0;0;0" begin="-184.6153846153846s"></animateTransform>
</path><path d="M3090.49161278348 1247.5 L3128.98322556696 1247.5 A26 26 0 0 1 3128.98322556696 1300.5 L3090.49161278348 1300.5 A26 26 0 0 1 3090.49161278348 1247.5" fill="#000">
  <animateTransform attributeName="transform" type="translate" dur="33.333333333333336s" repeatCount="indefinite" keyTimes="0;1" values="0;-2823.9074883362427" begin="-184.6153846153846s"></animateTransform>
  <animate attributeName="opacity" dur="33.333333333333336s" repeatCount="indefinite" keyTimes="0;0.3;1" values="1;1;0" begin="-184.6153846153846s"></animate>
</path><path d="M3300 1299.5 L1209.225713859078 1299.5 A26 26 0 0 0 1209.225713859078 1352.5 L3300 1352.5" fill="#fff">
  <animateTransform attributeName="transform" type="translate" dur="33.333333333333336s" repeatCount="indefinite" keyTimes="0;0.5;1" calcMode="spline" keySplines="0.5 0 0.5 1;0.5 0 0.5 1" values="0;0;0" begin="-192.30769230769232s"></animateTransform>
</path><path d="M1289.2505838505813 1299.5 L1303.837290044967 1299.5 A26 26 0 0 1 1303.837290044967 1352.5 L1289.2505838505813 1352.5 A26 26 0 0 1 1289.2505838505813 1299.5" fill="#fff">
  <animateTransform attributeName="transform" type="translate" dur="100s" repeatCount="indefinite" keyTimes="0;1" values="0;0" begin="-192.30769230769232s"></animateTransform>
  <animate attributeName="opacity" dur="100s" repeatCount="indefinite" keyTimes="0;0.3;1" values="1;1;0" begin="-192.30769230769232s"></animate>
</path><path d="M3300 1351.5 L1211.9683271177817 1351.5 A26 26 0 0 1 1211.9683271177817 1404.5 L3300 1404.5" fill="#fff">
  <animateTransform attributeName="transform" type="translate" dur="33.333333333333336s" repeatCount="indefinite" keyTimes="0;0.5;1" calcMode="spline" keySplines="0.5 0 0.5 1;0.5 0 0.5 1" values="0;0;0" begin="-200s"></animateTransform>
</path><path d="M3089.3873429928412 1351.5 L3126.7746859856825 1351.5 A26 26 0 0 1 3126.7746859856825 1404.5 L3089.3873429928412 1404.5 A26 26 0 0 1 3089.3873429928412 1351.5" fill="#000">
  <animateTransform attributeName="transform" type="translate" dur="100s" repeatCount="indefinite" keyTimes="0;1" values="0;-3890.043577824902" begin="-200s"></animateTransform>
  <animate attributeName="opacity" dur="100s" repeatCount="indefinite" keyTimes="0;0.3;1" values="1;1;0" begin="-200s"></animate>
</path><path d="M3300 1403.5 L1182.4649435570202 1403.5 A26 26 0 0 0 1182.4649435570202 1456.5 L3300 1456.5" fill="#fff">
  <animateTransform attributeName="transform" type="translate" dur="100s" repeatCount="indefinite" keyTimes="0;0.5;1" calcMode="spline" keySplines="0.5 0 0.5 1;0.5 0 0.5 1" values="0;0;0" begin="-207.69230769230768s"></animateTransform>
</path><path d="M1325.6360310041048 1403.5 L1342.9002075924145 1403.5 A26 26 0 0 1 1342.9002075924145 1456.5 L1325.6360310041048 1456.5 A26 26 0 0 1 1325.6360310041048 1403.5" fill="#fff">
  <animateTransform attributeName="transform" type="translate" dur="33.333333333333336s" repeatCount="indefinite" keyTimes="0;1" values="0;0" begin="-207.69230769230768s"></animateTransform>
  <animate attributeName="opacity" dur="33.333333333333336s" repeatCount="indefinite" keyTimes="0;0.3;1" values="1;1;0" begin="-207.69230769230768s"></animate>
</path><path d="M3300 1455.5 L1195.8134909024589 1455.5 A26 26 0 0 1 1195.8134909024589 1508.5 L3300 1508.5" fill="#fff">
  <animateTransform attributeName="transform" type="translate" dur="50s" repeatCount="indefinite" keyTimes="0;0.5;1" calcMode="spline" keySplines="0.5 0 0.5 1;0.5 0 0.5 1" values="0;0;0" begin="-215.3846153846154s"></animateTransform>
</path><path d="M3085.628406969494 1455.5 L3119.2568139389878 1455.5 A26 26 0 0 1 3119.2568139389878 1508.5 L3085.628406969494 1508.5 A26 26 0 0 1 3085.628406969494 1455.5" fill="#000">
  <animateTransform attributeName="transform" type="translate" dur="50s" repeatCount="indefinite" keyTimes="0;1" values="0;-2551.8447213094087" begin="-215.3846153846154s"></animateTransform>
  <animate attributeName="opacity" dur="50s" repeatCount="indefinite" keyTimes="0;0.3;1" values="1;1;0" begin="-215.3846153846154s"></animate>
</path><path d="M3300 1507.5 L1176.7870319922731 1507.5 A26 26 0 0 0 1176.7870319922731 1560.5 L3300 1560.5" fill="#fff">
  <animateTransform attributeName="transform" type="translate" dur="33.333333333333336s" repeatCount="indefinite" keyTimes="0;0.5;1" calcMode="spline" keySplines="0.5 0 0.5 1;0.5 0 0.5 1" values="0;0;0" begin="-223.0769230769231s"></animateTransform>
</path><path d="M1335.164307898021 1507.5 L1347.8847871931114 1507.5 A26 26 0 0 1 1347.8847871931114 1560.5 L1335.164307898021 1560.5 A26 26 0 0 1 1335.164307898021 1507.5" fill="#fff">
  <animateTransform attributeName="transform" type="translate" dur="33.333333333333336s" repeatCount="indefinite" keyTimes="0;1" values="0;0" begin="-223.0769230769231s"></animateTransform>
  <animate attributeName="opacity" dur="33.333333333333336s" repeatCount="indefinite" keyTimes="0;0.3;1" values="1;1;0" begin="-223.0769230769231s"></animate>
</path><path d="M3300 1559.5 L1215.390499000329 1559.5 A26 26 0 0 1 1215.390499000329 1612.5 L3300 1612.5" fill="#fff">
  <animateTransform attributeName="transform" type="translate" dur="33.333333333333336s" repeatCount="indefinite" keyTimes="0;0.5;1" calcMode="spline" keySplines="0.5 0 0.5 1;0.5 0 0.5 1" values="0;0;0" begin="-230.7692307692308s"></animateTransform>
</path><path d="M3075.307368934085 1559.5 L3098.61473786817 1559.5 A26 26 0 0 1 3098.61473786817 1612.5 L3075.307368934085 1612.5 A26 26 0 0 1 3075.307368934085 1559.5" fill="#000">
  <animateTransform attributeName="transform" type="translate" dur="50s" repeatCount="indefinite" keyTimes="0;1" values="0;-3854.1415583524094" begin="-230.7692307692308s"></animateTransform>
  <animate attributeName="opacity" dur="50s" repeatCount="indefinite" keyTimes="0;0.3;1" values="1;1;0" begin="-230.7692307692308s"></animate>
</path><path d="M3300 1611.5 L1214.4247761263287 1611.5 A26 26 0 0 0 1214.4247761263287 1664.5 L3300 1664.5" fill="#fff">
  <animateTransform attributeName="transform" type="translate" dur="33.333333333333336s" repeatCount="indefinite" keyTimes="0;0.5;1" calcMode="spline" keySplines="0.5 0 0.5 1;0.5 0 0.5 1" values="0;0;0" begin="-238.46153846153845s"></animateTransform>
</path><path d="M1295.2063105715538 1611.5 L1314.2706408547253 1611.5 A26 26 0 0 1 1314.2706408547253 1664.5 L1295.2063105715538 1664.5 A26 26 0 0 1 1295.2063105715538 1611.5" fill="#fff">
  <animateTransform attributeName="transform" type="translate" dur="50s" repeatCount="indefinite" keyTimes="0;1" values="0;0" begin="-238.46153846153845s"></animateTransform>
  <animate attributeName="opacity" dur="50s" repeatCount="indefinite" keyTimes="0;0.3;1" values="1;1;0" begin="-238.46153846153845s"></animate>
</path><path d="M3300 1663.5 L1212.712745815699 1663.5 A26 26 0 0 1 1212.712745815699 1716.5 L3300 1716.5" fill="#fff">
  <animateTransform attributeName="transform" type="translate" dur="100s" repeatCount="indefinite" keyTimes="0;0.5;1" calcMode="spline" keySplines="0.5 0 0.5 1;0.5 0 0.5 1" values="0;0;0" begin="-246.15384615384616s"></animateTransform>
</path><path d="M3087.523573584492 1663.5 L3123.0471471689843 1663.5 A26 26 0 0 1 3123.0471471689843 1716.5 L3087.523573584492 1716.5 A26 26 0 0 1 3087.523573584492 1663.5" fill="#000">
  <animateTransform attributeName="transform" type="translate" dur="100s" repeatCount="indefinite" keyTimes="0;1" values="0;-3724.158106294568" begin="-246.15384615384616s"></animateTransform>
  <animate attributeName="opacity" dur="100s" repeatCount="indefinite" keyTimes="0;0.3;1" values="1;1;0" begin="-246.15384615384616s"></animate>
</path><path d="M3300 1715.5 L1197.3915581878264 1715.5 A26 26 0 0 0 1197.3915581878264 1768.5 L3300 1768.5" fill="#fff">
  <animateTransform attributeName="transform" type="translate" dur="33.333333333333336s" repeatCount="indefinite" keyTimes="0;0.5;1" calcMode="spline" keySplines="0.5 0 0.5 1;0.5 0 0.5 1" values="0;0;0" begin="-253.84615384615384s"></animateTransform>
</path><path d="M1303.9874737657929 1715.5 L1340.2388530930098 1715.5 A26 26 0 0 1 1340.2388530930098 1768.5 L1303.9874737657929 1768.5 A26 26 0 0 1 1303.9874737657929 1715.5" fill="#fff">
  <animateTransform attributeName="transform" type="translate" dur="50s" repeatCount="indefinite" keyTimes="0;1" values="0;0" begin="-253.84615384615384s"></animateTransform>
  <animate attributeName="opacity" dur="50s" repeatCount="indefinite" keyTimes="0;0.3;1" values="1;1;0" begin="-253.84615384615384s"></animate>
</path><path d="M3300 1767.5 L1194.3381156313312 1767.5 A26 26 0 0 1 1194.3381156313312 1820.5 L3300 1820.5" fill="#fff">
  <animateTransform attributeName="transform" type="translate" dur="50s" repeatCount="indefinite" keyTimes="0;0.5;1" calcMode="spline" keySplines="0.5 0 0.5 1;0.5 0 0.5 1" values="0;0;0" begin="-261.53846153846155s"></animateTransform>
</path><path d="M3089.3228798432474 1767.5 L3126.645759686495 1767.5 A26 26 0 0 1 3126.645759686495 1820.5 L3089.3228798432474 1820.5 A26 26 0 0 1 3089.3228798432474 1767.5" fill="#000">
  <animateTransform attributeName="transform" type="translate" dur="50s" repeatCount="indefinite" keyTimes="0;1" values="0;-3124.5140030503994" begin="-261.53846153846155s"></animateTransform>
  <animate attributeName="opacity" dur="50s" repeatCount="indefinite" keyTimes="0;0.3;1" values="1;1;0" begin="-261.53846153846155s"></animate>
</path><path d="M3300 1819.5 L1165.322943472352 1819.5 A26 26 0 0 0 1165.322943472352 1872.5 L3300 1872.5" fill="#fff">
  <animateTransform attributeName="transform" type="translate" dur="50s" repeatCount="indefinite" keyTimes="0;0.5;1" calcMode="spline" keySplines="0.5 0 0.5 1;0.5 0 0.5 1" values="0;0;0" begin="-269.2307692307692s"></animateTransform>
</path><path d="M1322.7215923819267 1819.5 L1337.2987453298244 1819.5 A26 26 0 0 1 1337.2987453298244 1872.5 L1322.7215923819267 1872.5 A26 26 0 0 1 1322.7215923819267 1819.5" fill="#fff">
  <animateTransform attributeName="transform" type="translate" dur="100s" repeatCount="indefinite" keyTimes="0;1" values="0;0" begin="-269.2307692307692s"></animateTransform>
  <animate attributeName="opacity" dur="100s" repeatCount="indefinite" keyTimes="0;0.3;1" values="1;1;0" begin="-269.2307692307692s"></animate>
</path><path d="M3300 1871.5 L1178.7620870756891 1871.5 A26 26 0 0 1 1178.7620870756891 1924.5 L3300 1924.5" fill="#fff">
  <animateTransform attributeName="transform" type="translate" dur="33.333333333333336s" repeatCount="indefinite" keyTimes="0;0.5;1" calcMode="spline" keySplines="0.5 0 0.5 1;0.5 0 0.5 1" values="0;0;0" begin="-276.9230769230769s"></animateTransform>
</path><path d="M3086.4534678797054 1871.5 L3120.9069357594108 1871.5 A26 26 0 0 1 3120.9069357594108 1924.5 L3086.4534678797054 1924.5 A26 26 0 0 1 3086.4534678797054 1871.5" fill="#000">
  <animateTransform attributeName="transform" type="translate" dur="100s" repeatCount="indefinite" keyTimes="0;1" values="0;-3702.568252628409" begin="-276.9230769230769s"></animateTransform>
  <animate attributeName="opacity" dur="100s" repeatCount="indefinite" keyTimes="0;0.3;1" values="1;1;0" begin="-276.9230769230769s"></animate>
</path><path d="M3300 1923.5 L1149.8992737851943 1923.5 A26 26 0 0 0 1149.8992737851943 1976.5 L3300 1976.5" fill="#fff">
  <animateTransform attributeName="transform" type="translate" dur="33.333333333333336s" repeatCount="indefinite" keyTimes="0;0.5;1" calcMode="spline" keySplines="0.5 0 0.5 1;0.5 0 0.5 1" values="0;0;0" begin="-284.6153846153846s"></animateTransform>
</path><path d="M1321.100805842894 1923.5 L1343.1104130816072 1923.5 A26 26 0 0 1 1343.1104130816072 1976.5 L1321.100805842894 1976.5 A26 26 0 0 1 1321.100805842894 1923.5" fill="#fff">
  <animateTransform attributeName="transform" type="translate" dur="100s" repeatCount="indefinite" keyTimes="0;1" values="0;0" begin="-284.6153846153846s"></animateTransform>
  <animate attributeName="opacity" dur="100s" repeatCount="indefinite" keyTimes="0;0.3;1" values="1;1;0" begin="-284.6153846153846s"></animate>
</path><path d="M3300 1975.5 L1145.316727820342 1975.5 A26 26 0 0 1 1145.316727820342 2028.5 L3300 2028.5" fill="#fff">
  <animateTransform attributeName="transform" type="translate" dur="33.333333333333336s" repeatCount="indefinite" keyTimes="0;0.5;1" calcMode="spline" keySplines="0.5 0 0.5 1;0.5 0 0.5 1" values="0;0;0" begin="-292.30769230769226s"></animateTransform>
</path><path d="M3068.218106622912 1975.5 L3084.4362132458236 1975.5 A26 26 0 0 1 3084.4362132458236 2028.5 L3068.218106622912 2028.5 A26 26 0 0 1 3068.218106622912 1975.5" fill="#000">
  <animateTransform attributeName="transform" type="translate" dur="50s" repeatCount="indefinite" keyTimes="0;1" values="0;-2463.994659125196" begin="-292.30769230769226s"></animateTransform>
  <animate attributeName="opacity" dur="50s" repeatCount="indefinite" keyTimes="0;0.3;1" values="1;1;0" begin="-292.30769230769226s"></animate>
</path>    </g>
  </mask>
</defs>
<rect x="0" y="0" width="3000" height="2000" fill="url(#ldbk-photon-vsww1qftsbf-lg)" mask="url(#ldbk-photon-vsww1qftsbf-mask)"></rect></g>
</svg>