<?xml version="1.0" encoding="utf-8"?>
<svg xmlns="http://www.w3.org/2000/svg" xmlns:xlink="http://www.w3.org/1999/xlink" style="margin: auto; background: rgb(241, 242, 243); display: block; z-index: 1; position: relative; shape-rendering: auto;" preserveAspectRatio="xMidYMid" viewBox="0 0 1980 945">
<g transform="translate(990,472.5) scale(1,1) translate(-990,-472.5)"><defs>
  <linearGradient id="ldbk-photon-9ajfm0v5rhw-lg" x1="752.4000000000001" x2="1980" y1="0" y2="0" gradientUnits="userSpaceOnUse">
    <stop stop-color="#93dbe9" offset="0"></stop>
    <stop stop-color="#689cc5" offset="1"></stop>
  </linearGradient>
  <mask id="ldbk-photon-9ajfm0v5rhw-mask">
  <g><path d="M2280 -0.5 L726.6331512043819 -0.5 A25 25 0 0 1 726.6331512043819 50.5 L2280 50.5" fill="#fff">
  <animateTransform attributeName="transform" type="translate" dur="100s" repeatCount="indefinite" keyTimes="0;0.5;1" calcMode="spline" keySplines="0.5 0 0.5 1;0.5 0 0.5 1" values="0;0;0" begin="0s"></animateTransform>
</path><path d="M2042.2769199751342 -0.5 L2054.5538399502684 -0.5 A25 25 0 0 1 2054.5538399502684 50.5 L2042.2769199751342 50.5 A25 25 0 0 1 2042.2769199751342 -0.5" fill="#000">
  <animateTransform attributeName="transform" type="translate" dur="100s" repeatCount="indefinite" keyTimes="0;1" values="0;-2575.50936209228" begin="0s"></animateTransform>
  <animate attributeName="opacity" dur="100s" repeatCount="indefinite" keyTimes="0;0.3;1" values="1;1;0" begin="0s"></animate>
</path><path d="M2280 49.5 L716.8921671282415 49.5 A25 25 0 0 0 716.8921671282415 100.5 L2280 100.5" fill="#fff">
  <animateTransform attributeName="transform" type="translate" dur="100s" repeatCount="indefinite" keyTimes="0;0.5;1" calcMode="spline" keySplines="0.5 0 0.5 1;0.5 0 0.5 1" values="0;0;0" begin="-15.789473684210526s"></animateTransform>
</path><path d="M818.4258647194779 49.5 L853.0616591472453 49.5 A25 25 0 0 1 853.0616591472453 100.5 L818.4258647194779 100.5 A25 25 0 0 1 818.4258647194779 49.5" fill="#fff">
  <animateTransform attributeName="transform" type="translate" dur="50s" repeatCount="indefinite" keyTimes="0;1" values="0;0" begin="-15.789473684210526s"></animateTransform>
  <animate attributeName="opacity" dur="50s" repeatCount="indefinite" keyTimes="0;0.3;1" values="1;1;0" begin="-15.789473684210526s"></animate>
</path><path d="M2280 99.5 L708.2067698236917 99.5 A25 25 0 0 1 708.2067698236917 150.5 L2280 150.5" fill="#fff">
  <animateTransform attributeName="transform" type="translate" dur="50s" repeatCount="indefinite" keyTimes="0;0.5;1" calcMode="spline" keySplines="0.5 0 0.5 1;0.5 0 0.5 1" values="0;0;0" begin="-31.57894736842105s"></animateTransform>
</path><path d="M2056.5465754570555 99.5 L2083.093150914111 99.5 A25 25 0 0 1 2083.093150914111 150.5 L2056.5465754570555 150.5 A25 25 0 0 1 2056.5465754570555 99.5" fill="#000">
  <animateTransform attributeName="transform" type="translate" dur="100s" repeatCount="indefinite" keyTimes="0;1" values="0;-2078.6587473364098" begin="-31.57894736842105s"></animateTransform>
  <animate attributeName="opacity" dur="100s" repeatCount="indefinite" keyTimes="0;0.3;1" values="1;1;0" begin="-31.57894736842105s"></animate>
</path><path d="M2280 149.5 L691.9744928167738 149.5 A25 25 0 0 0 691.9744928167738 200.5 L2280 200.5" fill="#fff">
  <animateTransform attributeName="transform" type="translate" dur="50s" repeatCount="indefinite" keyTimes="0;0.5;1" calcMode="spline" keySplines="0.5 0 0.5 1;0.5 0 0.5 1" values="0;0;0" begin="-47.368421052631575s"></animateTransform>
</path><path d="M812.5955184874747 149.5 L827.7207535982689 149.5 A25 25 0 0 1 827.7207535982689 200.5 L812.5955184874747 200.5 A25 25 0 0 1 812.5955184874747 149.5" fill="#fff">
  <animateTransform attributeName="transform" type="translate" dur="100s" repeatCount="indefinite" keyTimes="0;1" values="0;0" begin="-47.368421052631575s"></animateTransform>
  <animate attributeName="opacity" dur="100s" repeatCount="indefinite" keyTimes="0;0.3;1" values="1;1;0" begin="-47.368421052631575s"></animate>
</path><path d="M2280 199.5 L705.7440524339459 199.5 A25 25 0 0 1 705.7440524339459 250.5 L2280 250.5" fill="#fff">
  <animateTransform attributeName="transform" type="translate" dur="50s" repeatCount="indefinite" keyTimes="0;0.5;1" calcMode="spline" keySplines="0.5 0 0.5 1;0.5 0 0.5 1" values="0;0;0" begin="-63.1578947368421s"></animateTransform>
</path><path d="M2061.627494610001 199.5 L2093.2549892200022 199.5 A25 25 0 0 1 2093.2549892200022 250.5 L2061.627494610001 250.5 A25 25 0 0 1 2061.627494610001 199.5" fill="#000">
  <animateTransform attributeName="transform" type="translate" dur="100s" repeatCount="indefinite" keyTimes="0;1" values="0;-1937.5379516277646" begin="-63.1578947368421s"></animateTransform>
  <animate attributeName="opacity" dur="100s" repeatCount="indefinite" keyTimes="0;0.3;1" values="1;1;0" begin="-63.1578947368421s"></animate>
</path><path d="M2280 249.5 L704.9285256219257 249.5 A25 25 0 0 0 704.9285256219257 300.5 L2280 300.5" fill="#fff">
  <animateTransform attributeName="transform" type="translate" dur="100s" repeatCount="indefinite" keyTimes="0;0.5;1" calcMode="spline" keySplines="0.5 0 0.5 1;0.5 0 0.5 1" values="0;0;0" begin="-78.94736842105263s"></animateTransform>
</path><path d="M790.0764047976743 249.5 L828.1735502975241 249.5 A25 25 0 0 1 828.1735502975241 300.5 L790.0764047976743 300.5 A25 25 0 0 1 790.0764047976743 249.5" fill="#fff">
  <animateTransform attributeName="transform" type="translate" dur="50s" repeatCount="indefinite" keyTimes="0;1" values="0;0" begin="-78.94736842105263s"></animateTransform>
  <animate attributeName="opacity" dur="50s" repeatCount="indefinite" keyTimes="0;0.3;1" values="1;1;0" begin="-78.94736842105263s"></animate>
</path><path d="M2280 299.5 L710.4585878502244 299.5 A25 25 0 0 1 710.4585878502244 350.5 L2280 350.5" fill="#fff">
  <animateTransform attributeName="transform" type="translate" dur="50s" repeatCount="indefinite" keyTimes="0;0.5;1" calcMode="spline" keySplines="0.5 0 0.5 1;0.5 0 0.5 1" values="0;0;0" begin="-94.73684210526315s"></animateTransform>
</path><path d="M2055.1430513304417 299.5 L2080.2861026608834 299.5 A25 25 0 0 1 2080.2861026608834 350.5 L2055.1430513304417 350.5 A25 25 0 0 1 2055.1430513304417 299.5" fill="#000">
  <animateTransform attributeName="transform" type="translate" dur="100s" repeatCount="indefinite" keyTimes="0;1" values="0;-2364.5736004490573" begin="-94.73684210526315s"></animateTransform>
  <animate attributeName="opacity" dur="100s" repeatCount="indefinite" keyTimes="0;0.3;1" values="1;1;0" begin="-94.73684210526315s"></animate>
</path><path d="M2280 349.5 L694.0602969048548 349.5 A25 25 0 0 0 694.0602969048548 400.5 L2280 400.5" fill="#fff">
  <animateTransform attributeName="transform" type="translate" dur="33.333333333333336s" repeatCount="indefinite" keyTimes="0;0.5;1" calcMode="spline" keySplines="0.5 0 0.5 1;0.5 0 0.5 1" values="0;0;0" begin="-110.52631578947367s"></animateTransform>
</path><path d="M816.5962684547574 349.5 L848.0697663397136 349.5 A25 25 0 0 1 848.0697663397136 400.5 L816.5962684547574 400.5 A25 25 0 0 1 816.5962684547574 349.5" fill="#fff">
  <animateTransform attributeName="transform" type="translate" dur="33.333333333333336s" repeatCount="indefinite" keyTimes="0;1" values="0;0" begin="-110.52631578947367s"></animateTransform>
  <animate attributeName="opacity" dur="33.333333333333336s" repeatCount="indefinite" keyTimes="0;0.3;1" values="1;1;0" begin="-110.52631578947367s"></animate>
</path><path d="M2280 399.5 L708.2007695059658 399.5 A25 25 0 0 1 708.2007695059658 450.5 L2280 450.5" fill="#fff">
  <animateTransform attributeName="transform" type="translate" dur="50s" repeatCount="indefinite" keyTimes="0;0.5;1" calcMode="spline" keySplines="0.5 0 0.5 1;0.5 0 0.5 1" values="0;0;0" begin="-126.3157894736842s"></animateTransform>
</path><path d="M2056.1404986804782 399.5 L2082.280997360956 399.5 A25 25 0 0 1 2082.280997360956 450.5 L2056.1404986804782 450.5 A25 25 0 0 1 2056.1404986804782 399.5" fill="#000">
  <animateTransform attributeName="transform" type="translate" dur="33.333333333333336s" repeatCount="indefinite" keyTimes="0;1" values="0;-2536.995482049998" begin="-126.3157894736842s"></animateTransform>
  <animate attributeName="opacity" dur="33.333333333333336s" repeatCount="indefinite" keyTimes="0;0.3;1" values="1;1;0" begin="-126.3157894736842s"></animate>
</path><path d="M2280 449.5 L717.541353588656 449.5 A25 25 0 0 0 717.541353588656 500.5 L2280 500.5" fill="#fff">
  <animateTransform attributeName="transform" type="translate" dur="50s" repeatCount="indefinite" keyTimes="0;0.5;1" calcMode="spline" keySplines="0.5 0 0.5 1;0.5 0 0.5 1" values="0;0;0" begin="-142.10526315789474s"></animateTransform>
</path><path d="M827.3829709945003 449.5 L848.4071357722805 449.5 A25 25 0 0 1 848.4071357722805 500.5 L827.3829709945003 500.5 A25 25 0 0 1 827.3829709945003 449.5" fill="#fff">
  <animateTransform attributeName="transform" type="translate" dur="100s" repeatCount="indefinite" keyTimes="0;1" values="0;0" begin="-142.10526315789474s"></animateTransform>
  <animate attributeName="opacity" dur="100s" repeatCount="indefinite" keyTimes="0;0.3;1" values="1;1;0" begin="-142.10526315789474s"></animate>
</path><path d="M2280 499.5 L735.7343472597745 499.5 A25 25 0 0 1 735.7343472597745 550.5 L2280 550.5" fill="#fff">
  <animateTransform attributeName="transform" type="translate" dur="33.333333333333336s" repeatCount="indefinite" keyTimes="0;0.5;1" calcMode="spline" keySplines="0.5 0 0.5 1;0.5 0 0.5 1" values="0;0;0" begin="-157.89473684210526s"></animateTransform>
</path><path d="M2046.7159268449032 499.5 L2063.4318536898063 499.5 A25 25 0 0 1 2063.4318536898063 550.5 L2046.7159268449032 550.5 A25 25 0 0 1 2046.7159268449032 499.5" fill="#000">
  <animateTransform attributeName="transform" type="translate" dur="33.333333333333336s" repeatCount="indefinite" keyTimes="0;1" values="0;-2429.1393754597766" begin="-157.89473684210526s"></animateTransform>
  <animate attributeName="opacity" dur="33.333333333333336s" repeatCount="indefinite" keyTimes="0;0.3;1" values="1;1;0" begin="-157.89473684210526s"></animate>
</path><path d="M2280 549.5 L729.1632498929391 549.5 A25 25 0 0 0 729.1632498929391 600.5 L2280 600.5" fill="#fff">
  <animateTransform attributeName="transform" type="translate" dur="50s" repeatCount="indefinite" keyTimes="0;0.5;1" calcMode="spline" keySplines="0.5 0 0.5 1;0.5 0 0.5 1" values="0;0;0" begin="-173.6842105263158s"></animateTransform>
</path><path d="M854.1935936892853 549.5 L869.9625593660858 549.5 A25 25 0 0 1 869.9625593660858 600.5 L854.1935936892853 600.5 A25 25 0 0 1 854.1935936892853 549.5" fill="#fff">
  <animateTransform attributeName="transform" type="translate" dur="100s" repeatCount="indefinite" keyTimes="0;1" values="0;0" begin="-173.6842105263158s"></animateTransform>
  <animate attributeName="opacity" dur="100s" repeatCount="indefinite" keyTimes="0;0.3;1" values="1;1;0" begin="-173.6842105263158s"></animate>
</path><path d="M2280 599.5 L750.0996502957582 599.5 A25 25 0 0 1 750.0996502957582 650.5 L2280 650.5" fill="#fff">
  <animateTransform attributeName="transform" type="translate" dur="100s" repeatCount="indefinite" keyTimes="0;0.5;1" calcMode="spline" keySplines="0.5 0 0.5 1;0.5 0 0.5 1" values="0;0;0" begin="-189.4736842105263s"></animateTransform>
</path><path d="M2063.1133896203373 599.5 L2096.2267792406747 599.5 A25 25 0 0 1 2096.2267792406747 650.5 L2063.1133896203373 650.5 A25 25 0 0 1 2063.1133896203373 599.5" fill="#000">
  <animateTransform attributeName="transform" type="translate" dur="33.333333333333336s" repeatCount="indefinite" keyTimes="0;1" values="0;-2262.632408546325" begin="-189.4736842105263s"></animateTransform>
  <animate attributeName="opacity" dur="33.333333333333336s" repeatCount="indefinite" keyTimes="0;0.3;1" values="1;1;0" begin="-189.4736842105263s"></animate>
</path><path d="M2280 649.5 L755.5011327752159 649.5 A25 25 0 0 0 755.5011327752159 700.5 L2280 700.5" fill="#fff">
  <animateTransform attributeName="transform" type="translate" dur="100s" repeatCount="indefinite" keyTimes="0;0.5;1" calcMode="spline" keySplines="0.5 0 0.5 1;0.5 0 0.5 1" values="0;0;0" begin="-205.26315789473685s"></animateTransform>
</path><path d="M854.2452668240876 649.5 L893.9842905921671 649.5 A25 25 0 0 1 893.9842905921671 700.5 L854.2452668240876 700.5 A25 25 0 0 1 854.2452668240876 649.5" fill="#fff">
  <animateTransform attributeName="transform" type="translate" dur="33.333333333333336s" repeatCount="indefinite" keyTimes="0;1" values="0;0" begin="-205.26315789473685s"></animateTransform>
  <animate attributeName="opacity" dur="33.333333333333336s" repeatCount="indefinite" keyTimes="0;0.3;1" values="1;1;0" begin="-205.26315789473685s"></animate>
</path><path d="M2280 699.5 L757.9254677657643 699.5 A25 25 0 0 1 757.9254677657643 750.5 L2280 750.5" fill="#fff">
  <animateTransform attributeName="transform" type="translate" dur="50s" repeatCount="indefinite" keyTimes="0;0.5;1" calcMode="spline" keySplines="0.5 0 0.5 1;0.5 0 0.5 1" values="0;0;0" begin="-221.05263157894734s"></animateTransform>
</path><path d="M2066.6971478498376 699.5 L2103.3942956996752 699.5 A25 25 0 0 1 2103.3942956996752 750.5 L2066.6971478498376 750.5 A25 25 0 0 1 2066.6971478498376 699.5" fill="#000">
  <animateTransform attributeName="transform" type="translate" dur="50s" repeatCount="indefinite" keyTimes="0;1" values="0;-1640.8204318729179" begin="-221.05263157894734s"></animateTransform>
  <animate attributeName="opacity" dur="50s" repeatCount="indefinite" keyTimes="0;0.3;1" values="1;1;0" begin="-221.05263157894734s"></animate>
</path><path d="M2280 749.5 L750.6557134186846 749.5 A25 25 0 0 0 750.6557134186846 800.5 L2280 800.5" fill="#fff">
  <animateTransform attributeName="transform" type="translate" dur="100s" repeatCount="indefinite" keyTimes="0;0.5;1" calcMode="spline" keySplines="0.5 0 0.5 1;0.5 0 0.5 1" values="0;0;0" begin="-236.84210526315786s"></animateTransform>
</path><path d="M862.3083025376754 749.5 L872.5198752177974 749.5 A25 25 0 0 1 872.5198752177974 800.5 L862.3083025376754 800.5 A25 25 0 0 1 862.3083025376754 749.5" fill="#fff">
  <animateTransform attributeName="transform" type="translate" dur="50s" repeatCount="indefinite" keyTimes="0;1" values="0;0" begin="-236.84210526315786s"></animateTransform>
  <animate attributeName="opacity" dur="50s" repeatCount="indefinite" keyTimes="0;0.3;1" values="1;1;0" begin="-236.84210526315786s"></animate>
</path><path d="M2280 799.5 L751.0612010312045 799.5 A25 25 0 0 1 751.0612010312045 850.5 L2280 850.5" fill="#fff">
  <animateTransform attributeName="transform" type="translate" dur="50s" repeatCount="indefinite" keyTimes="0;0.5;1" calcMode="spline" keySplines="0.5 0 0.5 1;0.5 0 0.5 1" values="0;0;0" begin="-252.6315789473684s"></animateTransform>
</path><path d="M2054.536834948948 799.5 L2079.0736698978963 799.5 A25 25 0 0 1 2079.0736698978963 850.5 L2054.536834948948 850.5 A25 25 0 0 1 2054.536834948948 799.5" fill="#000">
  <animateTransform attributeName="transform" type="translate" dur="100s" repeatCount="indefinite" keyTimes="0;1" values="0;-2467.220149499496" begin="-252.6315789473684s"></animateTransform>
  <animate attributeName="opacity" dur="100s" repeatCount="indefinite" keyTimes="0;0.3;1" values="1;1;0" begin="-252.6315789473684s"></animate>
</path><path d="M2280 849.5 L724.3718556922877 849.5 A25 25 0 0 0 724.3718556922877 900.5 L2280 900.5" fill="#fff">
  <animateTransform attributeName="transform" type="translate" dur="33.333333333333336s" repeatCount="indefinite" keyTimes="0;0.5;1" calcMode="spline" keySplines="0.5 0 0.5 1;0.5 0 0.5 1" values="0;0;0" begin="-268.42105263157896s"></animateTransform>
</path><path d="M867.2809070690923 849.5 L894.0604267219142 849.5 A25 25 0 0 1 894.0604267219142 900.5 L867.2809070690923 900.5 A25 25 0 0 1 867.2809070690923 849.5" fill="#fff">
  <animateTransform attributeName="transform" type="translate" dur="50s" repeatCount="indefinite" keyTimes="0;1" values="0;0" begin="-268.42105263157896s"></animateTransform>
  <animate attributeName="opacity" dur="50s" repeatCount="indefinite" keyTimes="0;0.3;1" values="1;1;0" begin="-268.42105263157896s"></animate>
</path><path d="M2280 899.5 L726.4875453504053 899.5 A25 25 0 0 1 726.4875453504053 950.5 L2280 950.5" fill="#fff">
  <animateTransform attributeName="transform" type="translate" dur="50s" repeatCount="indefinite" keyTimes="0;0.5;1" calcMode="spline" keySplines="0.5 0 0.5 1;0.5 0 0.5 1" values="0;0;0" begin="-284.2105263157895s"></animateTransform>
</path><path d="M2042.075568421746 899.5 L2054.151136843492 899.5 A25 25 0 0 1 2054.151136843492 950.5 L2042.075568421746 950.5 A25 25 0 0 1 2042.075568421746 899.5" fill="#000">
  <animateTransform attributeName="transform" type="translate" dur="33.333333333333336s" repeatCount="indefinite" keyTimes="0;1" values="0;-1746.7877318255935" begin="-284.2105263157895s"></animateTransform>
  <animate attributeName="opacity" dur="33.333333333333336s" repeatCount="indefinite" keyTimes="0;0.3;1" values="1;1;0" begin="-284.2105263157895s"></animate>
</path>    </g>
  </mask>
</defs>
<rect x="0" y="0" width="1980" height="945" fill="url(#ldbk-photon-9ajfm0v5rhw-lg)" mask="url(#ldbk-photon-9ajfm0v5rhw-mask)"></rect></g>
</svg>