<?xml version="1.0" encoding="utf-8"?>
<svg xmlns="http://www.w3.org/2000/svg" xmlns:xlink="http://www.w3.org/1999/xlink" style="margin: auto; background: rgb(18, 22, 47); display: block; z-index: 1; position: relative; shape-rendering: auto;" preserveAspectRatio="xMidYMid" viewBox="0 0 3000 1416">
<g transform="translate(1500,708) scale(1,1) translate(-1500,-708)"><defs>
  <linearGradient id="ldbk-photon-0cqj2ggn3fqk-lg" x1="1170" x2="3000" y1="0" y2="0" gradientUnits="userSpaceOnUse">
    <stop stop-color="#191d3a" offset="0"></stop>
    <stop stop-color="#1f2545" offset="1"></stop>
  </linearGradient>
  <mask id="ldbk-photon-0cqj2ggn3fqk-mask">
  <g><path d="M3300 -0.5 L1113.8561393289808 -0.5 A22.5 22.5 0 0 1 1113.8561393289808 45.5 L3300 45.5" fill="#fff">
  <animateTransform attributeName="transform" type="translate" dur="33.333333333333336s" repeatCount="indefinite" keyTimes="0;0.5;1" calcMode="spline" keySplines="0.5 0 0.5 1;0.5 0 0.5 1" values="29.5435568761111;0;29.5435568761111" begin="0s"></animateTransform>
</path><path d="M3080.1505345470846 -0.5 L3115.301069094169 -0.5 A22.5 22.5 0 0 1 3115.301069094169 45.5 L3080.1505345470846 45.5 A22.5 22.5 0 0 1 3080.1505345470846 -0.5" fill="#000">
  <animateTransform attributeName="transform" type="translate" dur="100s" repeatCount="indefinite" keyTimes="0;1" values="0;-3503.1212822763573" begin="0s"></animateTransform>
  <animate attributeName="opacity" dur="100s" repeatCount="indefinite" keyTimes="0;0.3;1" values="1;1;0" begin="0s"></animate>
</path><path d="M3300 44.5 L1106.1024054824647 44.5 A22.5 22.5 0 0 0 1106.1024054824647 90.5 L3300 90.5" fill="#fff">
  <animateTransform attributeName="transform" type="translate" dur="33.333333333333336s" repeatCount="indefinite" keyTimes="0;0.5;1" calcMode="spline" keySplines="0.5 0 0.5 1;0.5 0 0.5 1" values="-42.54764404211388;0;-42.54764404211388" begin="-9.375s"></animateTransform>
</path><path d="M1267.1921751965674 44.5 L1300.435573406338 44.5 A22.5 22.5 0 0 1 1300.435573406338 90.5 L1267.1921751965674 90.5 A22.5 22.5 0 0 1 1267.1921751965674 44.5" fill="#fff">
  <animateTransform attributeName="transform" type="translate" dur="50s" repeatCount="indefinite" keyTimes="0;1" values="0;0" begin="-9.375s"></animateTransform>
  <animate attributeName="opacity" dur="50s" repeatCount="indefinite" keyTimes="0;0.3;1" values="1;1;0" begin="-9.375s"></animate>
</path><path d="M3300 89.5 L1132.5015576051555 89.5 A22.5 22.5 0 0 1 1132.5015576051555 135.5 L3300 135.5" fill="#fff">
  <animateTransform attributeName="transform" type="translate" dur="100s" repeatCount="indefinite" keyTimes="0;0.5;1" calcMode="spline" keySplines="0.5 0 0.5 1;0.5 0 0.5 1" values="29.890917254470722;0;29.890917254470722" begin="-18.75s"></animateTransform>
</path><path d="M3064.7277289190424 89.5 L3084.455457838085 89.5 A22.5 22.5 0 0 1 3084.455457838085 135.5 L3064.7277289190424 135.5 A22.5 22.5 0 0 1 3064.7277289190424 89.5" fill="#000">
  <animateTransform attributeName="transform" type="translate" dur="33.333333333333336s" repeatCount="indefinite" keyTimes="0;1" values="0;-3321.02814259848" begin="-18.75s"></animateTransform>
  <animate attributeName="opacity" dur="33.333333333333336s" repeatCount="indefinite" keyTimes="0;0.3;1" values="1;1;0" begin="-18.75s"></animate>
</path><path d="M3300 134.5 L1121.447308156925 134.5 A22.5 22.5 0 0 0 1121.447308156925 180.5 L3300 180.5" fill="#fff">
  <animateTransform attributeName="transform" type="translate" dur="100s" repeatCount="indefinite" keyTimes="0;0.5;1" calcMode="spline" keySplines="0.5 0 0.5 1;0.5 0 0.5 1" values="-47.30205117083361;0;-47.30205117083361" begin="-28.125s"></animateTransform>
</path><path d="M1230.218477861899 134.5 L1252.5890569791975 134.5 A22.5 22.5 0 0 1 1252.5890569791975 180.5 L1230.218477861899 180.5 A22.5 22.5 0 0 1 1230.218477861899 134.5" fill="#fff">
  <animateTransform attributeName="transform" type="translate" dur="50s" repeatCount="indefinite" keyTimes="0;1" values="0;0" begin="-28.125s"></animateTransform>
  <animate attributeName="opacity" dur="50s" repeatCount="indefinite" keyTimes="0;0.3;1" values="1;1;0" begin="-28.125s"></animate>
</path><path d="M3300 179.5 L1129.1110104599998 179.5 A22.5 22.5 0 0 1 1129.1110104599998 225.5 L3300 225.5" fill="#fff">
  <animateTransform attributeName="transform" type="translate" dur="33.333333333333336s" repeatCount="indefinite" keyTimes="0;0.5;1" calcMode="spline" keySplines="0.5 0 0.5 1;0.5 0 0.5 1" values="45.823395953580956;0;45.823395953580956" begin="-37.5s"></animateTransform>
</path><path d="M3057.7023501333797 179.5 L3070.4047002667594 179.5 A22.5 22.5 0 0 1 3070.4047002667594 225.5 L3057.7023501333797 225.5 A22.5 22.5 0 0 1 3057.7023501333797 179.5" fill="#000">
  <animateTransform attributeName="transform" type="translate" dur="33.333333333333336s" repeatCount="indefinite" keyTimes="0;1" values="0;-2565.5637262349" begin="-37.5s"></animateTransform>
  <animate attributeName="opacity" dur="33.333333333333336s" repeatCount="indefinite" keyTimes="0;0.3;1" values="1;1;0" begin="-37.5s"></animate>
</path><path d="M3300 224.5 L1125.3801255265198 224.5 A22.5 22.5 0 0 0 1125.3801255265198 270.5 L3300 270.5" fill="#fff">
  <animateTransform attributeName="transform" type="translate" dur="100s" repeatCount="indefinite" keyTimes="0;0.5;1" calcMode="spline" keySplines="0.5 0 0.5 1;0.5 0 0.5 1" values="-41.38240931693603;0;-41.38240931693603" begin="-46.875s"></animateTransform>
</path><path d="M1209.7316977353275 224.5 L1236.2305649902942 224.5 A22.5 22.5 0 0 1 1236.2305649902942 270.5 L1209.7316977353275 270.5 A22.5 22.5 0 0 1 1209.7316977353275 224.5" fill="#fff">
  <animateTransform attributeName="transform" type="translate" dur="33.333333333333336s" repeatCount="indefinite" keyTimes="0;1" values="0;0" begin="-46.875s"></animateTransform>
  <animate attributeName="opacity" dur="33.333333333333336s" repeatCount="indefinite" keyTimes="0;0.3;1" values="1;1;0" begin="-46.875s"></animate>
</path><path d="M3300 269.5 L1127.4003438388231 269.5 A22.5 22.5 0 0 1 1127.4003438388231 315.5 L3300 315.5" fill="#fff">
  <animateTransform attributeName="transform" type="translate" dur="100s" repeatCount="indefinite" keyTimes="0;0.5;1" calcMode="spline" keySplines="0.5 0 0.5 1;0.5 0 0.5 1" values="42.84209090161286;0;42.84209090161286" begin="-56.25s"></animateTransform>
</path><path d="M3076.955194502076 269.5 L3108.9103890041524 269.5 A22.5 22.5 0 0 1 3108.9103890041524 315.5 L3076.955194502076 315.5 A22.5 22.5 0 0 1 3076.955194502076 269.5" fill="#000">
  <animateTransform attributeName="transform" type="translate" dur="33.333333333333336s" repeatCount="indefinite" keyTimes="0;1" values="0;-2535.9815536211863" begin="-56.25s"></animateTransform>
  <animate attributeName="opacity" dur="33.333333333333336s" repeatCount="indefinite" keyTimes="0;0.3;1" values="1;1;0" begin="-56.25s"></animate>
</path><path d="M3300 314.5 L1125.6931714020648 314.5 A22.5 22.5 0 0 0 1125.6931714020648 360.5 L3300 360.5" fill="#fff">
  <animateTransform attributeName="transform" type="translate" dur="100s" repeatCount="indefinite" keyTimes="0;0.5;1" calcMode="spline" keySplines="0.5 0 0.5 1;0.5 0 0.5 1" values="-34.14112925548007;0;-34.14112925548007" begin="-65.625s"></animateTransform>
</path><path d="M1200.4597117737412 314.5 L1235.5136100705397 314.5 A22.5 22.5 0 0 1 1235.5136100705397 360.5 L1200.4597117737412 360.5 A22.5 22.5 0 0 1 1200.4597117737412 314.5" fill="#fff">
  <animateTransform attributeName="transform" type="translate" dur="50s" repeatCount="indefinite" keyTimes="0;1" values="0;0" begin="-65.625s"></animateTransform>
  <animate attributeName="opacity" dur="50s" repeatCount="indefinite" keyTimes="0;0.3;1" values="1;1;0" begin="-65.625s"></animate>
</path><path d="M3300 359.5 L1125.1167298141618 359.5 A22.5 22.5 0 0 1 1125.1167298141618 405.5 L3300 405.5" fill="#fff">
  <animateTransform attributeName="transform" type="translate" dur="100s" repeatCount="indefinite" keyTimes="0;0.5;1" calcMode="spline" keySplines="0.5 0 0.5 1;0.5 0 0.5 1" values="32.139921533052274;0;32.139921533052274" begin="-75s"></animateTransform>
</path><path d="M3083.516316635182 359.5 L3122.0326332703644 359.5 A22.5 22.5 0 0 1 3122.0326332703644 405.5 L3083.516316635182 405.5 A22.5 22.5 0 0 1 3083.516316635182 359.5" fill="#000">
  <animateTransform attributeName="transform" type="translate" dur="100s" repeatCount="indefinite" keyTimes="0;1" values="0;-3561.6056716640696" begin="-75s"></animateTransform>
  <animate attributeName="opacity" dur="100s" repeatCount="indefinite" keyTimes="0;0.3;1" values="1;1;0" begin="-75s"></animate>
</path><path d="M3300 404.5 L1085.6848499185191 404.5 A22.5 22.5 0 0 0 1085.6848499185191 450.5 L3300 450.5" fill="#fff">
  <animateTransform attributeName="transform" type="translate" dur="100s" repeatCount="indefinite" keyTimes="0;0.5;1" calcMode="spline" keySplines="0.5 0 0.5 1;0.5 0 0.5 1" values="-42.69968077015726;0;-42.69968077015726" begin="-84.375s"></animateTransform>
</path><path d="M1240.4680332572868 404.5 L1279.7504763032287 404.5 A22.5 22.5 0 0 1 1279.7504763032287 450.5 L1240.4680332572868 450.5 A22.5 22.5 0 0 1 1240.4680332572868 404.5" fill="#fff">
  <animateTransform attributeName="transform" type="translate" dur="100s" repeatCount="indefinite" keyTimes="0;1" values="0;0" begin="-84.375s"></animateTransform>
  <animate attributeName="opacity" dur="100s" repeatCount="indefinite" keyTimes="0;0.3;1" values="1;1;0" begin="-84.375s"></animate>
</path><path d="M3300 449.5 L1117.7741640627823 449.5 A22.5 22.5 0 0 1 1117.7741640627823 495.5 L3300 495.5" fill="#fff">
  <animateTransform attributeName="transform" type="translate" dur="50s" repeatCount="indefinite" keyTimes="0;0.5;1" calcMode="spline" keySplines="0.5 0 0.5 1;0.5 0 0.5 1" values="42.09961234902018;0;42.09961234902018" begin="-93.75s"></animateTransform>
</path><path d="M3068.8468225857623 449.5 L3092.6936451715246 449.5 A22.5 22.5 0 0 1 3092.6936451715246 495.5 L3068.8468225857623 495.5 A22.5 22.5 0 0 1 3068.8468225857623 449.5" fill="#000">
  <animateTransform attributeName="transform" type="translate" dur="33.333333333333336s" repeatCount="indefinite" keyTimes="0;1" values="0;-3877.2418489827405" begin="-93.75s"></animateTransform>
  <animate attributeName="opacity" dur="33.333333333333336s" repeatCount="indefinite" keyTimes="0;0.3;1" values="1;1;0" begin="-93.75s"></animate>
</path><path d="M3300 494.5 L1120.5464616690447 494.5 A22.5 22.5 0 0 0 1120.5464616690447 540.5 L3300 540.5" fill="#fff">
  <animateTransform attributeName="transform" type="translate" dur="33.333333333333336s" repeatCount="indefinite" keyTimes="0;0.5;1" calcMode="spline" keySplines="0.5 0 0.5 1;0.5 0 0.5 1" values="-30.263807686963652;0;-30.263807686963652" begin="-103.125s"></animateTransform>
</path><path d="M1214.5653615928027 494.5 L1242.369322705275 494.5 A22.5 22.5 0 0 1 1242.369322705275 540.5 L1214.5653615928027 540.5 A22.5 22.5 0 0 1 1214.5653615928027 494.5" fill="#fff">
  <animateTransform attributeName="transform" type="translate" dur="50s" repeatCount="indefinite" keyTimes="0;1" values="0;0" begin="-103.125s"></animateTransform>
  <animate attributeName="opacity" dur="50s" repeatCount="indefinite" keyTimes="0;0.3;1" values="1;1;0" begin="-103.125s"></animate>
</path><path d="M3300 539.5 L1124.2773466025246 539.5 A22.5 22.5 0 0 1 1124.2773466025246 585.5 L3300 585.5" fill="#fff">
  <animateTransform attributeName="transform" type="translate" dur="100s" repeatCount="indefinite" keyTimes="0;0.5;1" calcMode="spline" keySplines="0.5 0 0.5 1;0.5 0 0.5 1" values="38.38105678632965;0;38.38105678632965" begin="-112.5s"></animateTransform>
</path><path d="M3067.3164186825143 539.5 L3089.6328373650285 539.5 A22.5 22.5 0 0 1 3089.6328373650285 585.5 L3067.3164186825143 585.5 A22.5 22.5 0 0 1 3067.3164186825143 539.5" fill="#000">
  <animateTransform attributeName="transform" type="translate" dur="50s" repeatCount="indefinite" keyTimes="0;1" values="0;-2956.575400067169" begin="-112.5s"></animateTransform>
  <animate attributeName="opacity" dur="50s" repeatCount="indefinite" keyTimes="0;0.3;1" values="1;1;0" begin="-112.5s"></animate>
</path><path d="M3300 584.5 L1122.369167035172 584.5 A22.5 22.5 0 0 0 1122.369167035172 630.5 L3300 630.5" fill="#fff">
  <animateTransform attributeName="transform" type="translate" dur="100s" repeatCount="indefinite" keyTimes="0;0.5;1" calcMode="spline" keySplines="0.5 0 0.5 1;0.5 0 0.5 1" values="-49.00254151432288;0;-49.00254151432288" begin="-121.875s"></animateTransform>
</path><path d="M1229.2966189836518 584.5 L1256.6519150323109 584.5 A22.5 22.5 0 0 1 1256.6519150323109 630.5 L1229.2966189836518 630.5 A22.5 22.5 0 0 1 1229.2966189836518 584.5" fill="#fff">
  <animateTransform attributeName="transform" type="translate" dur="33.333333333333336s" repeatCount="indefinite" keyTimes="0;1" values="0;0" begin="-121.875s"></animateTransform>
  <animate attributeName="opacity" dur="33.333333333333336s" repeatCount="indefinite" keyTimes="0;0.3;1" values="1;1;0" begin="-121.875s"></animate>
</path><path d="M3300 629.5 L1132.9748704638478 629.5 A22.5 22.5 0 0 1 1132.9748704638478 675.5 L3300 675.5" fill="#fff">
  <animateTransform attributeName="transform" type="translate" dur="100s" repeatCount="indefinite" keyTimes="0;0.5;1" calcMode="spline" keySplines="0.5 0 0.5 1;0.5 0 0.5 1" values="33.55569005712029;0;33.55569005712029" begin="-131.25s"></animateTransform>
</path><path d="M3067.3462553635973 629.5 L3089.6925107271945 629.5 A22.5 22.5 0 0 1 3089.6925107271945 675.5 L3067.3462553635973 675.5 A22.5 22.5 0 0 1 3067.3462553635973 629.5" fill="#000">
  <animateTransform attributeName="transform" type="translate" dur="50s" repeatCount="indefinite" keyTimes="0;1" values="0;-2759.796206344714" begin="-131.25s"></animateTransform>
  <animate attributeName="opacity" dur="50s" repeatCount="indefinite" keyTimes="0;0.3;1" values="1;1;0" begin="-131.25s"></animate>
</path><path d="M3300 674.5 L1135.7438288808842 674.5 A22.5 22.5 0 0 0 1135.7438288808842 720.5 L3300 720.5" fill="#fff">
  <animateTransform attributeName="transform" type="translate" dur="33.333333333333336s" repeatCount="indefinite" keyTimes="0;0.5;1" calcMode="spline" keySplines="0.5 0 0.5 1;0.5 0 0.5 1" values="-39.7898278099027;0;-39.7898278099027" begin="-140.625s"></animateTransform>
</path><path d="M1237.550751798148 674.5 L1253.375599591006 674.5 A22.5 22.5 0 0 1 1253.375599591006 720.5 L1237.550751798148 720.5 A22.5 22.5 0 0 1 1237.550751798148 674.5" fill="#fff">
  <animateTransform attributeName="transform" type="translate" dur="100s" repeatCount="indefinite" keyTimes="0;1" values="0;0" begin="-140.625s"></animateTransform>
  <animate attributeName="opacity" dur="100s" repeatCount="indefinite" keyTimes="0;0.3;1" values="1;1;0" begin="-140.625s"></animate>
</path><path d="M3300 719.5 L1159.2397380477294 719.5 A22.5 22.5 0 0 1 1159.2397380477294 765.5 L3300 765.5" fill="#fff">
  <animateTransform attributeName="transform" type="translate" dur="100s" repeatCount="indefinite" keyTimes="0;0.5;1" calcMode="spline" keySplines="0.5 0 0.5 1;0.5 0 0.5 1" values="32.61269411327644;0;32.61269411327644" begin="-150s"></animateTransform>
</path><path d="M3061.328298575847 719.5 L3077.656597151694 719.5 A22.5 22.5 0 0 1 3077.656597151694 765.5 L3061.328298575847 765.5 A22.5 22.5 0 0 1 3061.328298575847 719.5" fill="#000">
  <animateTransform attributeName="transform" type="translate" dur="33.333333333333336s" repeatCount="indefinite" keyTimes="0;1" values="0;-2435.8785492000325" begin="-150s"></animateTransform>
  <animate attributeName="opacity" dur="33.333333333333336s" repeatCount="indefinite" keyTimes="0;0.3;1" values="1;1;0" begin="-150s"></animate>
</path><path d="M3300 764.5 L1165.0924477082133 764.5 A22.5 22.5 0 0 0 1165.0924477082133 810.5 L3300 810.5" fill="#fff">
  <animateTransform attributeName="transform" type="translate" dur="100s" repeatCount="indefinite" keyTimes="0;0.5;1" calcMode="spline" keySplines="0.5 0 0.5 1;0.5 0 0.5 1" values="-38.74986655259666;0;-38.74986655259666" begin="-159.375s"></animateTransform>
</path><path d="M1231.6129716127546 764.5 L1268.916497635003 764.5 A22.5 22.5 0 0 1 1268.916497635003 810.5 L1231.6129716127546 810.5 A22.5 22.5 0 0 1 1231.6129716127546 764.5" fill="#fff">
  <animateTransform attributeName="transform" type="translate" dur="33.333333333333336s" repeatCount="indefinite" keyTimes="0;1" values="0;0" begin="-159.375s"></animateTransform>
  <animate attributeName="opacity" dur="33.333333333333336s" repeatCount="indefinite" keyTimes="0;0.3;1" values="1;1;0" begin="-159.375s"></animate>
</path><path d="M3300 809.5 L1170.7202410186821 809.5 A22.5 22.5 0 0 1 1170.7202410186821 855.5 L3300 855.5" fill="#fff">
  <animateTransform attributeName="transform" type="translate" dur="50s" repeatCount="indefinite" keyTimes="0;0.5;1" calcMode="spline" keySplines="0.5 0 0.5 1;0.5 0 0.5 1" values="28.594245996803284;0;28.594245996803284" begin="-168.75s"></animateTransform>
</path><path d="M3067.7815845191526 809.5 L3090.563169038305 809.5 A22.5 22.5 0 0 1 3090.563169038305 855.5 L3067.7815845191526 855.5 A22.5 22.5 0 0 1 3067.7815845191526 809.5" fill="#000">
  <animateTransform attributeName="transform" type="translate" dur="100s" repeatCount="indefinite" keyTimes="0;1" values="0;-2767.559477931742" begin="-168.75s"></animateTransform>
  <animate attributeName="opacity" dur="100s" repeatCount="indefinite" keyTimes="0;0.3;1" values="1;1;0" begin="-168.75s"></animate>
</path><path d="M3300 854.5 L1160.0349362467161 854.5 A22.5 22.5 0 0 0 1160.0349362467161 900.5 L3300 900.5" fill="#fff">
  <animateTransform attributeName="transform" type="translate" dur="50s" repeatCount="indefinite" keyTimes="0;0.5;1" calcMode="spline" keySplines="0.5 0 0.5 1;0.5 0 0.5 1" values="-32.09699458243783;0;-32.09699458243783" begin="-178.125s"></animateTransform>
</path><path d="M1258.29927773446 854.5 L1297.9388716425344 854.5 A22.5 22.5 0 0 1 1297.9388716425344 900.5 L1258.29927773446 900.5 A22.5 22.5 0 0 1 1258.29927773446 854.5" fill="#fff">
  <animateTransform attributeName="transform" type="translate" dur="100s" repeatCount="indefinite" keyTimes="0;1" values="0;0" begin="-178.125s"></animateTransform>
  <animate attributeName="opacity" dur="100s" repeatCount="indefinite" keyTimes="0;0.3;1" values="1;1;0" begin="-178.125s"></animate>
</path><path d="M3300 899.5 L1164.5810326917244 899.5 A22.5 22.5 0 0 1 1164.5810326917244 945.5 L3300 945.5" fill="#fff">
  <animateTransform attributeName="transform" type="translate" dur="50s" repeatCount="indefinite" keyTimes="0;0.5;1" calcMode="spline" keySplines="0.5 0 0.5 1;0.5 0 0.5 1" values="49.17376628199462;0;49.17376628199462" begin="-187.5s"></animateTransform>
</path><path d="M3079.3127755482165 899.5 L3113.625551096433 899.5 A22.5 22.5 0 0 1 3113.625551096433 945.5 L3079.3127755482165 945.5 A22.5 22.5 0 0 1 3079.3127755482165 899.5" fill="#000">
  <animateTransform attributeName="transform" type="translate" dur="100s" repeatCount="indefinite" keyTimes="0;1" values="0;-2652.5031226989095" begin="-187.5s"></animateTransform>
  <animate attributeName="opacity" dur="100s" repeatCount="indefinite" keyTimes="0;0.3;1" values="1;1;0" begin="-187.5s"></animate>
</path><path d="M3300 944.5 L1164.8170503328874 944.5 A22.5 22.5 0 0 0 1164.8170503328874 990.5 L3300 990.5" fill="#fff">
  <animateTransform attributeName="transform" type="translate" dur="50s" repeatCount="indefinite" keyTimes="0;0.5;1" calcMode="spline" keySplines="0.5 0 0.5 1;0.5 0 0.5 1" values="-49.50769044685427;0;-49.50769044685427" begin="-196.875s"></animateTransform>
</path><path d="M1270.0711264052652 944.5 L1293.9734774300532 944.5 A22.5 22.5 0 0 1 1293.9734774300532 990.5 L1270.0711264052652 990.5 A22.5 22.5 0 0 1 1270.0711264052652 944.5" fill="#fff">
  <animateTransform attributeName="transform" type="translate" dur="100s" repeatCount="indefinite" keyTimes="0;1" values="0;0" begin="-196.875s"></animateTransform>
  <animate attributeName="opacity" dur="100s" repeatCount="indefinite" keyTimes="0;0.3;1" values="1;1;0" begin="-196.875s"></animate>
</path><path d="M3300 989.5 L1167.5893479391498 989.5 A22.5 22.5 0 0 1 1167.5893479391498 1035.5 L3300 1035.5" fill="#fff">
  <animateTransform attributeName="transform" type="translate" dur="50s" repeatCount="indefinite" keyTimes="0;0.5;1" calcMode="spline" keySplines="0.5 0 0.5 1;0.5 0 0.5 1" values="44.016938123132256;0;44.016938123132256" begin="-206.25s"></animateTransform>
</path><path d="M3077.635440133759 989.5 L3110.270880267518 989.5 A22.5 22.5 0 0 1 3110.270880267518 1035.5 L3077.635440133759 1035.5 A22.5 22.5 0 0 1 3077.635440133759 989.5" fill="#000">
  <animateTransform attributeName="transform" type="translate" dur="100s" repeatCount="indefinite" keyTimes="0;1" values="0;-3122.315808995798" begin="-206.25s"></animateTransform>
  <animate attributeName="opacity" dur="100s" repeatCount="indefinite" keyTimes="0;0.3;1" values="1;1;0" begin="-206.25s"></animate>
</path><path d="M3300 1034.5 L1145.3230109455912 1034.5 A22.5 22.5 0 0 0 1145.3230109455912 1080.5 L3300 1080.5" fill="#fff">
  <animateTransform attributeName="transform" type="translate" dur="33.333333333333336s" repeatCount="indefinite" keyTimes="0;0.5;1" calcMode="spline" keySplines="0.5 0 0.5 1;0.5 0 0.5 1" values="-32.60957900561842;0;-32.60957900561842" begin="-215.625s"></animateTransform>
</path><path d="M1298.5241058786028 1034.5 L1316.3230183961311 1034.5 A22.5 22.5 0 0 1 1316.3230183961311 1080.5 L1298.5241058786028 1080.5 A22.5 22.5 0 0 1 1298.5241058786028 1034.5" fill="#fff">
  <animateTransform attributeName="transform" type="translate" dur="50s" repeatCount="indefinite" keyTimes="0;1" values="0;0" begin="-215.625s"></animateTransform>
  <animate attributeName="opacity" dur="50s" repeatCount="indefinite" keyTimes="0;0.3;1" values="1;1;0" begin="-215.625s"></animate>
</path><path d="M3300 1079.5 L1176.2466500506816 1079.5 A22.5 22.5 0 0 1 1176.2466500506816 1125.5 L3300 1125.5" fill="#fff">
  <animateTransform attributeName="transform" type="translate" dur="33.333333333333336s" repeatCount="indefinite" keyTimes="0;0.5;1" calcMode="spline" keySplines="0.5 0 0.5 1;0.5 0 0.5 1" values="32.662531537623416;0;32.662531537623416" begin="-225s"></animateTransform>
</path><path d="M3055.486682112495 1079.5 L3065.9733642249903 1079.5 A22.5 22.5 0 0 1 3065.9733642249903 1125.5 L3055.486682112495 1125.5 A22.5 22.5 0 0 1 3055.486682112495 1079.5" fill="#000">
  <animateTransform attributeName="transform" type="translate" dur="100s" repeatCount="indefinite" keyTimes="0;1" values="0;-2642.237215683511" begin="-225s"></animateTransform>
  <animate attributeName="opacity" dur="100s" repeatCount="indefinite" keyTimes="0;0.3;1" values="1;1;0" begin="-225s"></animate>
</path><path d="M3300 1124.5 L1160.3718003629838 1124.5 A22.5 22.5 0 0 0 1160.3718003629838 1170.5 L3300 1170.5" fill="#fff">
  <animateTransform attributeName="transform" type="translate" dur="100s" repeatCount="indefinite" keyTimes="0;0.5;1" calcMode="spline" keySplines="0.5 0 0.5 1;0.5 0 0.5 1" values="-26.721885332215344;0;-26.721885332215344" begin="-234.375s"></animateTransform>
</path><path d="M1283.4753164612102 1124.5 L1303.1317866905783 1124.5 A22.5 22.5 0 0 1 1303.1317866905783 1170.5 L1283.4753164612102 1170.5 A22.5 22.5 0 0 1 1283.4753164612102 1124.5" fill="#fff">
  <animateTransform attributeName="transform" type="translate" dur="100s" repeatCount="indefinite" keyTimes="0;1" values="0;0" begin="-234.375s"></animateTransform>
  <animate attributeName="opacity" dur="100s" repeatCount="indefinite" keyTimes="0;0.3;1" values="1;1;0" begin="-234.375s"></animate>
</path><path d="M3300 1169.5 L1158.6646279262254 1169.5 A22.5 22.5 0 0 1 1158.6646279262254 1215.5 L3300 1215.5" fill="#fff">
  <animateTransform attributeName="transform" type="translate" dur="50s" repeatCount="indefinite" keyTimes="0;0.5;1" calcMode="spline" keySplines="0.5 0 0.5 1;0.5 0 0.5 1" values="42.81237930213326;0;42.81237930213326" begin="-243.75s"></animateTransform>
</path><path d="M3078.910949217493 1169.5 L3112.821898434986 1169.5 A22.5 22.5 0 0 1 3112.821898434986 1215.5 L3078.910949217493 1215.5 A22.5 22.5 0 0 1 3078.910949217493 1169.5" fill="#000">
  <animateTransform attributeName="transform" type="translate" dur="100s" repeatCount="indefinite" keyTimes="0;1" values="0;-2697.2365611133664" begin="-243.75s"></animateTransform>
  <animate attributeName="opacity" dur="100s" repeatCount="indefinite" keyTimes="0;0.3;1" values="1;1;0" begin="-243.75s"></animate>
</path><path d="M3300 1214.5 L1151.3437827429823 1214.5 A22.5 22.5 0 0 0 1151.3437827429823 1260.5 L3300 1260.5" fill="#fff">
  <animateTransform attributeName="transform" type="translate" dur="50s" repeatCount="indefinite" keyTimes="0;0.5;1" calcMode="spline" keySplines="0.5 0 0.5 1;0.5 0 0.5 1" values="-43.647571894114606;0;-43.647571894114606" begin="-253.125s"></animateTransform>
</path><path d="M1283.5443939951704 1214.5 L1295.2673080567502 1214.5 A22.5 22.5 0 0 1 1295.2673080567502 1260.5 L1283.5443939951704 1260.5 A22.5 22.5 0 0 1 1283.5443939951704 1214.5" fill="#fff">
  <animateTransform attributeName="transform" type="translate" dur="100s" repeatCount="indefinite" keyTimes="0;1" values="0;0" begin="-253.125s"></animateTransform>
  <animate attributeName="opacity" dur="100s" repeatCount="indefinite" keyTimes="0;0.3;1" values="1;1;0" begin="-253.125s"></animate>
</path><path d="M3300 1259.5 L1163.1643384330541 1259.5 A22.5 22.5 0 0 1 1163.1643384330541 1305.5 L3300 1305.5" fill="#fff">
  <animateTransform attributeName="transform" type="translate" dur="33.333333333333336s" repeatCount="indefinite" keyTimes="0;0.5;1" calcMode="spline" keySplines="0.5 0 0.5 1;0.5 0 0.5 1" values="29.123533060199993;0;29.123533060199993" begin="-262.5s"></animateTransform>
</path><path d="M3084.913702738378 1259.5 L3124.827405476756 1259.5 A22.5 22.5 0 0 1 3124.827405476756 1305.5 L3084.913702738378 1305.5 A22.5 22.5 0 0 1 3084.913702738378 1259.5" fill="#000">
  <animateTransform attributeName="transform" type="translate" dur="50s" repeatCount="indefinite" keyTimes="0;1" values="0;-3740.5026677155156" begin="-262.5s"></animateTransform>
  <animate attributeName="opacity" dur="50s" repeatCount="indefinite" keyTimes="0;0.3;1" values="1;1;0" begin="-262.5s"></animate>
</path><path d="M3300 1304.5 L1137.7901728406696 1304.5 A22.5 22.5 0 0 0 1137.7901728406696 1350.5 L3300 1350.5" fill="#fff">
  <animateTransform attributeName="transform" type="translate" dur="100s" repeatCount="indefinite" keyTimes="0;0.5;1" calcMode="spline" keySplines="0.5 0 0.5 1;0.5 0 0.5 1" values="-50.9256755167585;0;-50.9256755167585" begin="-271.875s"></animateTransform>
</path><path d="M1280.5440411405066 1304.5 L1304.3934625034888 1304.5 A22.5 22.5 0 0 1 1304.3934625034888 1350.5 L1280.5440411405066 1350.5 A22.5 22.5 0 0 1 1280.5440411405066 1304.5" fill="#fff">
  <animateTransform attributeName="transform" type="translate" dur="33.333333333333336s" repeatCount="indefinite" keyTimes="0;1" values="0;0" begin="-271.875s"></animateTransform>
  <animate attributeName="opacity" dur="33.333333333333336s" repeatCount="indefinite" keyTimes="0;0.3;1" values="1;1;0" begin="-271.875s"></animate>
</path><path d="M3300 1349.5 L1162.3332981193291 1349.5 A22.5 22.5 0 0 1 1162.3332981193291 1395.5 L3300 1395.5" fill="#fff">
  <animateTransform attributeName="transform" type="translate" dur="100s" repeatCount="indefinite" keyTimes="0;0.5;1" calcMode="spline" keySplines="0.5 0 0.5 1;0.5 0 0.5 1" values="32.08876646276538;0;32.08876646276538" begin="-281.25s"></animateTransform>
</path><path d="M3060.476321692944 1349.5 L3075.952643385888 1349.5 A22.5 22.5 0 0 1 3075.952643385888 1395.5 L3060.476321692944 1395.5 A22.5 22.5 0 0 1 3060.476321692944 1349.5" fill="#000">
  <animateTransform attributeName="transform" type="translate" dur="100s" repeatCount="indefinite" keyTimes="0;1" values="0;-3380.5437111719175" begin="-281.25s"></animateTransform>
  <animate attributeName="opacity" dur="100s" repeatCount="indefinite" keyTimes="0;0.3;1" values="1;1;0" begin="-281.25s"></animate>
</path><path d="M3300 1394.5 L1156.7055048088603 1394.5 A22.5 22.5 0 0 0 1156.7055048088603 1440.5 L3300 1440.5" fill="#fff">
  <animateTransform attributeName="transform" type="translate" dur="50s" repeatCount="indefinite" keyTimes="0;0.5;1" calcMode="spline" keySplines="0.5 0 0.5 1;0.5 0 0.5 1" values="-29.021976033117625;0;-29.021976033117625" begin="-290.625s"></animateTransform>
</path><path d="M1239.9999145121076 1394.5 L1257.6115554460334 1394.5 A22.5 22.5 0 0 1 1257.6115554460334 1440.5 L1239.9999145121076 1440.5 A22.5 22.5 0 0 1 1239.9999145121076 1394.5" fill="#fff">
  <animateTransform attributeName="transform" type="translate" dur="100s" repeatCount="indefinite" keyTimes="0;1" values="0;0" begin="-290.625s"></animateTransform>
  <animate attributeName="opacity" dur="100s" repeatCount="indefinite" keyTimes="0;0.3;1" values="1;1;0" begin="-290.625s"></animate>
</path>    </g>
  </mask>
</defs>
<rect x="0" y="0" width="3000" height="1416" fill="url(#ldbk-photon-0cqj2ggn3fqk-lg)" mask="url(#ldbk-photon-0cqj2ggn3fqk-mask)"></rect></g>
</svg>